<svg id="svg" version="1.1" xmlns="http://www.w3.org/2000/svg" xmlns:xlink="http://www.w3.org/1999/xlink" width="400" height="400.86206896551727" viewBox="0, 0, 400,400.86206896551727"><g id="svgg"><path id="path0" d="M173.707 2.086 C 17.710 24.700,-53.015 205.234,45.995 328.084 C 102.362 398.022,206.567 420.432,288.362 380.207 C 434.814 308.184,438.083 100.060,293.966 23.413 C 259.967 5.331,211.102 -3.335,173.707 2.086 M221.370 19.875 C 345.497 33.366,418.535 167.475,363.367 280.603 C 298.216 414.203,106.112 415.989,38.870 283.621 C -27.166 153.628,76.296 4.108,221.370 19.875 M209.052 52.864 C 201.433 56.805,195.088 66.306,192.542 77.586 C 191.387 82.703,193.175 96.552,194.991 96.552 C 195.375 96.552,195.690 97.047,195.690 97.653 C 195.690 100.473,206.893 106.408,208.206 104.284 C 208.464 103.866,209.255 103.746,209.963 104.017 C 211.238 104.507,216.116 101.702,220.378 98.027 C 230.106 89.643,234.111 64.632,226.940 57.050 C 226.347 56.424,225.862 55.623,225.862 55.271 C 225.862 52.012,213.985 50.312,209.052 52.864 M243.977 81.988 C 241.934 82.902,239.556 84.517,238.692 85.575 C 237.828 86.634,236.581 88.082,235.921 88.793 C 231.299 93.774,229.613 108.604,233.194 112.783 C 236.263 116.365,245.690 119.695,245.690 117.197 C 245.690 116.747,246.406 116.379,247.281 116.379 C 248.869 116.379,255.178 110.108,256.983 106.736 C 257.936 104.955,258.098 104.260,259.061 97.845 C 259.346 95.948,259.734 93.924,259.924 93.347 C 260.114 92.769,259.943 92.094,259.543 91.847 C 259.143 91.600,258.561 90.036,258.248 88.372 C 257.936 86.707,257.287 85.345,256.807 85.345 C 256.326 85.345,256.133 85.021,256.378 84.625 C 256.817 83.914,251.721 81.104,249.061 80.590 C 248.307 80.444,246.019 81.073,243.977 81.988 M269.828 105.174 C 269.828 105.544,268.955 106.087,267.888 106.379 C 264.273 107.369,260.100 112.227,258.153 117.712 C 256.878 121.303,256.576 129.310,257.716 129.310 C 258.214 129.310,258.621 129.864,258.621 130.541 C 258.621 132.816,262.689 135.180,266.043 134.855 C 280.732 133.432,286.898 106.800,272.973 104.924 C 271.243 104.691,269.828 104.803,269.828 105.174 M189.130 121.750 C 186.233 122.632,183.129 124.054,182.233 124.910 C 167.880 138.622,165.718 155.924,175.568 178.237 C 176.668 180.728,177.547 182.862,177.521 182.978 C 177.406 183.501,178.694 186.845,179.819 188.943 C 184.667 197.989,184.032 217.502,178.540 228.269 C 175.265 234.688,162.674 245.873,157.538 246.926 C 156.948 247.047,154.526 248.016,152.155 249.080 C 149.784 250.144,145.323 252.019,142.241 253.248 C 139.159 254.477,136.444 255.703,136.207 255.974 C 135.970 256.244,134.418 257.222,132.759 258.147 C 128.236 260.666,124.911 263.579,119.646 269.635 C 117.063 272.606,111.844 282.598,110.766 286.638 C 110.386 288.060,109.920 289.806,109.730 290.517 C 107.464 298.998,109.031 309.990,113.362 315.992 C 115.453 318.890,123.412 326.724,124.265 326.724 C 124.601 326.724,125.417 327.264,126.077 327.925 C 133.888 335.736,158.021 338.305,163.793 331.941 C 164.030 331.679,165.606 330.765,167.296 329.908 C 173.655 326.683,179.758 319.722,184.496 310.292 C 186.029 307.239,187.634 304.609,188.062 304.446 C 188.489 304.284,189.581 302.732,190.488 300.998 C 192.107 297.901,193.291 296.370,199.778 288.983 C 204.126 284.031,206.282 281.875,209.452 279.310 C 210.917 278.125,213.538 275.894,215.278 274.353 C 217.017 272.812,218.725 271.552,219.072 271.552 C 219.420 271.552,220.217 271.053,220.844 270.443 C 221.470 269.833,223.534 268.184,225.430 266.779 C 230.376 263.114,230.552 262.973,233.613 260.239 C 235.140 258.875,236.722 257.759,237.130 257.759 C 238.121 257.759,254.396 241.489,256.034 238.860 C 256.746 237.718,258.000 236.079,258.823 235.216 C 259.645 234.353,262.595 229.083,265.378 223.505 C 269.866 214.507,270.890 211.991,272.138 206.897 C 276.078 190.814,268.526 169.086,253.515 153.318 C 251.345 151.038,249.134 148.680,248.603 148.078 C 247.764 147.126,241.667 141.762,238.539 139.224 C 237.955 138.750,235.543 137.024,233.178 135.389 C 230.814 133.754,228.685 132.154,228.448 131.833 C 228.211 131.512,224.138 129.315,219.397 126.952 C 206.135 120.342,198.224 118.982,189.130 121.750 M281.588 129.060 C 277.993 129.986,270.662 140.326,271.175 143.750 C 271.264 144.343,271.385 145.350,271.444 145.989 C 272.017 152.165,281.783 152.778,287.562 146.999 C 296.711 137.851,292.821 126.170,281.588 129.060 M287.069 150.845 C 287.069 151.329,286.665 151.724,286.171 151.724 C 284.953 151.724,282.365 154.290,281.064 156.788 C 277.343 163.928,281.438 172.132,287.562 169.804 C 294.665 167.104,298.206 153.599,292.415 151.292 C 289.630 150.183,287.069 149.969,287.069 150.845 " stroke="none" fill="#000000" fill-rule="evenodd"></path></g></svg>